<svg xmlns="http://www.w3.org/2000/svg" viewBox="0 0 220 220" role="img" aria-label="Marca BRÚJULA">
  <circle cx="110" cy="104" r="76" fill="none" stroke="#c3b288" stroke-width="7"/>
  <path d="M52 153 C82 134 138 134 168 153" fill="none" stroke="#6b7d6c" stroke-width="10" stroke-linecap="round"/>
  <path d="M64 174 C92 159 128 159 156 174" fill="none" stroke="#6b7d6c" stroke-width="7" stroke-linecap="round"/>
  <path d="M110 10 126 91 110 78 94 91Z" fill="#0f243e"/>
  <path d="M204 104 123 120 136 104 123 88Z" fill="#c3b288"/>
  <path d="M110 198 94 117 110 130 126 117Z" fill="#c3b288"/>
  <path d="M16 104 97 88 84 104 97 120Z" fill="#0f243e"/>
  <path d="M110 62 124 90 158 104 124 118 110 152 96 118 62 104 96 90Z" fill="#c3b288" opacity=".86"/>
  <line x1="24" y1="104" x2="196" y2="104" stroke="#0f243e" stroke-width="4" stroke-linecap="round"/>
  <line x1="110" y1="18" x2="110" y2="190" stroke="#0f243e" stroke-width="4" stroke-linecap="round"/>
</svg>
